<svg xmlns="http://www.w3.org/2000/svg" xmlns:xlink="http://www.w3.org/1999/xlink" width="784" zoomAndPan="magnify" viewBox="0 0 588 470.999988" height="628" preserveAspectRatio="xMidYMid meet" version="1.0"><defs><g/></defs><rect x="-58.8" width="705.6" fill="#ffffff" y="-47.099999" height="565.199986" fill-opacity="1"/><rect x="-58.8" width="705.6" fill="#ffffff" y="-47.099999" height="565.199986" fill-opacity="1"/><g fill="#000000" fill-opacity="1"><g transform="translate(207.591951, 318.809597)"><g><path d="M 10.15625 -17.765625 C 11.40625 -17.765625 12.625 -17.523438 13.8125 -17.046875 C 15 -16.566406 16.023438 -15.898438 16.890625 -15.046875 L 15.140625 -12.875 C 14.503906 -13.5625 13.742188 -14.109375 12.859375 -14.515625 C 11.984375 -14.921875 11.101562 -15.125 10.21875 -15.125 C 8.445312 -15.125 6.945312 -14.519531 5.71875 -13.3125 C 4.5 -12.101562 3.890625 -10.632812 3.890625 -8.90625 C 3.890625 -7.144531 4.5 -5.660156 5.71875 -4.453125 C 6.945312 -3.253906 8.445312 -2.65625 10.21875 -2.65625 C 12.050781 -2.65625 13.691406 -3.351562 15.140625 -4.75 L 16.90625 -2.78125 C 16 -1.882812 14.9375 -1.175781 13.71875 -0.65625 C 12.507812 -0.132812 11.289062 0.125 10.0625 0.125 C 7.46875 0.125 5.285156 -0.738281 3.515625 -2.46875 C 1.742188 -4.195312 0.859375 -6.332031 0.859375 -8.875 C 0.859375 -11.382812 1.753906 -13.492188 3.546875 -15.203125 C 5.347656 -16.910156 7.550781 -17.765625 10.15625 -17.765625 Z M 10.15625 -17.765625 "/></g></g></g><g fill="#000000" fill-opacity="1"><g transform="translate(226.491285, 318.809597)"><g><path d="M 3.5625 -15.203125 C 5.363281 -16.910156 7.585938 -17.765625 10.234375 -17.765625 C 12.878906 -17.765625 15.101562 -16.910156 16.90625 -15.203125 C 18.71875 -13.492188 19.625 -11.375 19.625 -8.84375 C 19.625 -6.320312 18.71875 -4.195312 16.90625 -2.46875 C 15.101562 -0.738281 12.878906 0.125 10.234375 0.125 C 7.585938 0.125 5.363281 -0.738281 3.5625 -2.46875 C 1.757812 -4.195312 0.859375 -6.320312 0.859375 -8.84375 C 0.859375 -11.375 1.757812 -13.492188 3.5625 -15.203125 Z M 10.265625 -15.09375 C 8.515625 -15.09375 7.015625 -14.488281 5.765625 -13.28125 C 4.515625 -12.082031 3.890625 -10.601562 3.890625 -8.84375 C 3.890625 -7.09375 4.515625 -5.601562 5.765625 -4.375 C 7.023438 -3.15625 8.523438 -2.546875 10.265625 -2.546875 C 12.003906 -2.546875 13.488281 -3.15625 14.71875 -4.375 C 15.945312 -5.601562 16.5625 -7.09375 16.5625 -8.84375 C 16.5625 -10.601562 15.945312 -12.082031 14.71875 -13.28125 C 13.488281 -14.488281 12.003906 -15.09375 10.265625 -15.09375 Z M 10.265625 -15.09375 "/></g></g></g><g fill="#000000" fill-opacity="1"><g transform="translate(248.245646, 318.809597)"><g><path d="M 21.03125 0 L 18.28125 0 L 18.25 -13.21875 L 12.671875 -1.84375 L 10.71875 -1.84375 L 5.125 -13.21875 L 5.125 0 L 2.328125 0 L 2.328125 -17.703125 L 5.859375 -17.703125 L 11.703125 -5.9375 L 17.515625 -17.703125 L 21.03125 -17.703125 Z M 21.03125 0 "/></g></g></g><g fill="#000000" fill-opacity="1"><g transform="translate(272.905553, 318.809597)"><g><path d="M 21.03125 0 L 18.28125 0 L 18.25 -13.21875 L 12.671875 -1.84375 L 10.71875 -1.84375 L 5.125 -13.21875 L 5.125 0 L 2.328125 0 L 2.328125 -17.703125 L 5.859375 -17.703125 L 11.703125 -5.9375 L 17.515625 -17.703125 L 21.03125 -17.703125 Z M 21.03125 0 "/></g></g></g><g fill="#000000" fill-opacity="1"><g transform="translate(297.565464, 318.809597)"><g><path d="M 17.375 -17.703125 L 17.375 -7.328125 C 17.375 -5.023438 16.6875 -3.207031 15.3125 -1.875 C 13.945312 -0.539062 12.066406 0.125 9.671875 0.125 C 7.285156 0.125 5.40625 -0.539062 4.03125 -1.875 C 2.65625 -3.207031 1.96875 -5.023438 1.96875 -7.328125 L 1.96875 -17.703125 L 4.953125 -17.703125 L 4.953125 -7.328125 C 4.953125 -5.847656 5.378906 -4.679688 6.234375 -3.828125 C 7.085938 -2.972656 8.242188 -2.546875 9.703125 -2.546875 C 11.148438 -2.546875 12.289062 -2.96875 13.125 -3.8125 C 13.96875 -4.65625 14.390625 -5.828125 14.390625 -7.328125 L 14.390625 -17.703125 Z M 17.375 -17.703125 "/></g></g></g><g fill="#000000" fill-opacity="1"><g transform="translate(318.157595, 318.809597)"><g><path d="M 17.671875 0 L 14.734375 0 L 5.3125 -12.6875 L 5.3125 0 L 2.328125 0 L 2.328125 -17.703125 L 5.265625 -17.703125 L 14.734375 -4.984375 L 14.734375 -17.703125 L 17.671875 -17.703125 Z M 17.671875 0 "/></g></g></g><g fill="#000000" fill-opacity="1"><g transform="translate(339.457165, 318.809597)"><g><path d="M 5.3125 0 L 2.328125 0 L 2.328125 -17.703125 L 5.3125 -17.703125 Z M 5.3125 0 "/></g></g></g><g fill="#000000" fill-opacity="1"><g transform="translate(348.376553, 318.809597)"><g><path d="M 14.40625 -15.015625 L 8.796875 -15.015625 L 8.796875 0 L 5.8125 0 L 5.8125 -15.015625 L 0.234375 -15.015625 L 0.234375 -17.703125 L 14.40625 -17.703125 Z M 14.40625 -15.015625 "/></g></g></g><g fill="#000000" fill-opacity="1"><g transform="translate(364.294528, 318.809597)"><g><path d="M 9.578125 -5.890625 L 9.578125 0 L 6.625 0 L 6.625 -5.796875 L 0.03125 -17.703125 L 3.03125 -17.703125 L 8.09375 -9.078125 L 13.046875 -17.703125 L 16.078125 -17.703125 Z M 9.578125 -5.890625 "/></g></g></g><g fill="#000000" fill-opacity="1"><g transform="translate(234.263824, 354.059595)"><g><path d="M 8.140625 -17.828125 C 10.429688 -17.828125 12.492188 -17.21875 14.328125 -16 L 13.09375 -13.375 C 11.289062 -14.46875 9.5625 -15.015625 7.90625 -15.015625 C 7.019531 -15.015625 6.316406 -14.851562 5.796875 -14.53125 C 5.285156 -14.21875 5.03125 -13.765625 5.03125 -13.171875 C 5.03125 -12.578125 5.265625 -12.070312 5.734375 -11.65625 C 6.210938 -11.25 6.804688 -10.945312 7.515625 -10.75 C 8.222656 -10.5625 8.988281 -10.316406 9.8125 -10.015625 C 10.632812 -9.722656 11.398438 -9.410156 12.109375 -9.078125 C 12.816406 -8.753906 13.398438 -8.242188 13.859375 -7.546875 C 14.328125 -6.847656 14.5625 -6 14.5625 -5 C 14.5625 -3.457031 13.941406 -2.222656 12.703125 -1.296875 C 11.460938 -0.367188 9.859375 0.09375 7.890625 0.09375 C 6.535156 0.09375 5.226562 -0.15625 3.96875 -0.65625 C 2.707031 -1.164062 1.601562 -1.847656 0.65625 -2.703125 L 1.953125 -5.28125 C 2.835938 -4.457031 3.816406 -3.820312 4.890625 -3.375 C 5.960938 -2.925781 6.976562 -2.703125 7.9375 -2.703125 C 8.976562 -2.703125 9.789062 -2.890625 10.375 -3.265625 C 10.957031 -3.648438 11.25 -4.179688 11.25 -4.859375 C 11.25 -5.460938 11.007812 -5.96875 10.53125 -6.375 C 10.0625 -6.789062 9.472656 -7.09375 8.765625 -7.28125 C 8.054688 -7.476562 7.289062 -7.71875 6.46875 -8 C 5.644531 -8.28125 4.878906 -8.578125 4.171875 -8.890625 C 3.460938 -9.203125 2.867188 -9.703125 2.390625 -10.390625 C 1.921875 -11.078125 1.6875 -11.910156 1.6875 -12.890625 C 1.6875 -14.390625 2.273438 -15.585938 3.453125 -16.484375 C 4.640625 -17.378906 6.203125 -17.828125 8.140625 -17.828125 Z M 8.140625 -17.828125 "/></g></g></g><g fill="#000000" fill-opacity="1"><g transform="translate(251.268234, 354.059595)"><g><path d="M 10.15625 -17.765625 C 11.40625 -17.765625 12.625 -17.523438 13.8125 -17.046875 C 15 -16.566406 16.023438 -15.898438 16.890625 -15.046875 L 15.140625 -12.875 C 14.503906 -13.5625 13.742188 -14.109375 12.859375 -14.515625 C 11.984375 -14.921875 11.101562 -15.125 10.21875 -15.125 C 8.445312 -15.125 6.945312 -14.519531 5.71875 -13.3125 C 4.5 -12.101562 3.890625 -10.632812 3.890625 -8.90625 C 3.890625 -7.144531 4.5 -5.660156 5.71875 -4.453125 C 6.945312 -3.253906 8.445312 -2.65625 10.21875 -2.65625 C 12.050781 -2.65625 13.691406 -3.351562 15.140625 -4.75 L 16.90625 -2.78125 C 16 -1.882812 14.9375 -1.175781 13.71875 -0.65625 C 12.507812 -0.132812 11.289062 0.125 10.0625 0.125 C 7.46875 0.125 5.285156 -0.738281 3.515625 -2.46875 C 1.742188 -4.195312 0.859375 -6.332031 0.859375 -8.875 C 0.859375 -11.382812 1.753906 -13.492188 3.546875 -15.203125 C 5.347656 -16.910156 7.550781 -17.765625 10.15625 -17.765625 Z M 10.15625 -17.765625 "/></g></g></g><g fill="#000000" fill-opacity="1"><g transform="translate(270.167568, 354.059595)"><g><path d="M 5.3125 0 L 2.328125 0 L 2.328125 -17.703125 L 5.3125 -17.703125 Z M 5.3125 0 "/></g></g></g><g fill="#000000" fill-opacity="1"><g transform="translate(279.086955, 354.059595)"><g><path d="M 14.96875 -15.015625 L 5.3125 -15.015625 L 5.3125 -10.234375 L 13.953125 -10.234375 L 13.953125 -7.5625 L 5.3125 -7.5625 L 5.3125 -2.6875 L 15.265625 -2.6875 L 15.265625 0 L 2.328125 0 L 2.328125 -17.703125 L 14.96875 -17.703125 Z M 14.96875 -15.015625 "/></g></g></g><g fill="#000000" fill-opacity="1"><g transform="translate(296.950395, 354.059595)"><g><path d="M 17.671875 0 L 14.734375 0 L 5.3125 -12.6875 L 5.3125 0 L 2.328125 0 L 2.328125 -17.703125 L 5.265625 -17.703125 L 14.734375 -4.984375 L 14.734375 -17.703125 L 17.671875 -17.703125 Z M 17.671875 0 "/></g></g></g><g fill="#000000" fill-opacity="1"><g transform="translate(318.249965, 354.059595)"><g><path d="M 10.15625 -17.765625 C 11.40625 -17.765625 12.625 -17.523438 13.8125 -17.046875 C 15 -16.566406 16.023438 -15.898438 16.890625 -15.046875 L 15.140625 -12.875 C 14.503906 -13.5625 13.742188 -14.109375 12.859375 -14.515625 C 11.984375 -14.921875 11.101562 -15.125 10.21875 -15.125 C 8.445312 -15.125 6.945312 -14.519531 5.71875 -13.3125 C 4.5 -12.101562 3.890625 -10.632812 3.890625 -8.90625 C 3.890625 -7.144531 4.5 -5.660156 5.71875 -4.453125 C 6.945312 -3.253906 8.445312 -2.65625 10.21875 -2.65625 C 12.050781 -2.65625 13.691406 -3.351562 15.140625 -4.75 L 16.90625 -2.78125 C 16 -1.882812 14.9375 -1.175781 13.71875 -0.65625 C 12.507812 -0.132812 11.289062 0.125 10.0625 0.125 C 7.46875 0.125 5.285156 -0.738281 3.515625 -2.46875 C 1.742188 -4.195312 0.859375 -6.332031 0.859375 -8.875 C 0.859375 -11.382812 1.753906 -13.492188 3.546875 -15.203125 C 5.347656 -16.910156 7.550781 -17.765625 10.15625 -17.765625 Z M 10.15625 -17.765625 "/></g></g></g><g fill="#000000" fill-opacity="1"><g transform="translate(337.149304, 354.059595)"><g><path d="M 14.96875 -15.015625 L 5.3125 -15.015625 L 5.3125 -10.234375 L 13.953125 -10.234375 L 13.953125 -7.5625 L 5.3125 -7.5625 L 5.3125 -2.6875 L 15.265625 -2.6875 L 15.265625 0 L 2.328125 0 L 2.328125 -17.703125 L 14.96875 -17.703125 Z M 14.96875 -15.015625 "/></g></g></g><g fill="#2f4faa" fill-opacity="1"><g transform="translate(232.016515, 389.877851)"><g><path d="M 4.546875 -15.890625 L 9.75 -2.921875 L 14.953125 -15.890625 L 17.671875 -15.890625 L 17.671875 0 L 15.5625 0 L 15.5625 -6.1875 L 15.765625 -12.875 L 10.546875 0 L 8.9375 0 L 3.734375 -12.84375 L 3.9375 -6.1875 L 3.9375 0 L 1.84375 0 L 1.84375 -15.890625 Z M 4.546875 -15.890625 "/></g></g></g><g fill="#2f4faa" fill-opacity="1"><g transform="translate(257.530341, 389.877851)"><g><path d="M 13.03125 -15.890625 L 13.03125 -5.09375 C 13.03125 -3.59375 12.5625 -2.363281 11.625 -1.40625 C 10.6875 -0.457031 9.414062 0.078125 7.8125 0.203125 L 7.265625 0.21875 C 5.523438 0.21875 4.132812 -0.25 3.09375 -1.1875 C 2.0625 -2.125 1.539062 -3.414062 1.53125 -5.0625 L 1.53125 -15.890625 L 3.609375 -15.890625 L 3.609375 -5.125 C 3.609375 -3.976562 3.921875 -3.085938 4.546875 -2.453125 C 5.179688 -1.816406 6.085938 -1.5 7.265625 -1.5 C 8.453125 -1.5 9.359375 -1.8125 9.984375 -2.4375 C 10.609375 -3.070312 10.921875 -3.96875 10.921875 -5.125 L 10.921875 -15.890625 Z M 13.03125 -15.890625 "/></g></g></g><g fill="#2f4faa" fill-opacity="1"><g transform="translate(278.022345, 389.877851)"><g><path d="M 6.53125 -7.078125 C 4.726562 -7.597656 3.414062 -8.234375 2.59375 -8.984375 C 1.78125 -9.742188 1.375 -10.675781 1.375 -11.78125 C 1.375 -13.03125 1.875 -14.0625 2.875 -14.875 C 3.875 -15.695312 5.175781 -16.109375 6.78125 -16.109375 C 7.875 -16.109375 8.847656 -15.894531 9.703125 -15.46875 C 10.554688 -15.050781 11.21875 -14.472656 11.6875 -13.734375 C 12.15625 -12.992188 12.390625 -12.179688 12.390625 -11.296875 L 10.28125 -11.296875 C 10.28125 -12.253906 9.972656 -13.007812 9.359375 -13.5625 C 8.753906 -14.113281 7.894531 -14.390625 6.78125 -14.390625 C 5.75 -14.390625 4.941406 -14.160156 4.359375 -13.703125 C 3.785156 -13.253906 3.5 -12.625 3.5 -11.8125 C 3.5 -11.164062 3.769531 -10.617188 4.3125 -10.171875 C 4.863281 -9.722656 5.800781 -9.3125 7.125 -8.9375 C 8.445312 -8.570312 9.476562 -8.164062 10.21875 -7.71875 C 10.96875 -7.269531 11.519531 -6.742188 11.875 -6.140625 C 12.238281 -5.546875 12.421875 -4.847656 12.421875 -4.046875 C 12.421875 -2.753906 11.914062 -1.71875 10.90625 -0.9375 C 9.90625 -0.164062 8.566406 0.21875 6.890625 0.21875 C 5.796875 0.21875 4.773438 0.0078125 3.828125 -0.40625 C 2.878906 -0.820312 2.148438 -1.394531 1.640625 -2.125 C 1.128906 -2.851562 0.875 -3.679688 0.875 -4.609375 L 2.984375 -4.609375 C 2.984375 -3.648438 3.335938 -2.890625 4.046875 -2.328125 C 4.753906 -1.773438 5.703125 -1.5 6.890625 -1.5 C 7.992188 -1.5 8.835938 -1.722656 9.421875 -2.171875 C 10.015625 -2.617188 10.3125 -3.234375 10.3125 -4.015625 C 10.3125 -4.796875 10.035156 -5.398438 9.484375 -5.828125 C 8.941406 -6.253906 7.957031 -6.671875 6.53125 -7.078125 Z M 6.53125 -7.078125 "/></g></g></g><g fill="#2f4faa" fill-opacity="1"><g transform="translate(297.280725, 389.877851)"><g><path d="M 10.828125 -7.34375 L 3.9375 -7.34375 L 3.9375 -1.71875 L 11.9375 -1.71875 L 11.9375 0 L 1.84375 0 L 1.84375 -15.890625 L 11.828125 -15.890625 L 11.828125 -14.171875 L 3.9375 -14.171875 L 3.9375 -9.0625 L 10.828125 -9.0625 Z M 10.828125 -7.34375 "/></g></g></g><g fill="#2f4faa" fill-opacity="1"><g transform="translate(315.98234, 389.877851)"><g><path d="M 13.03125 -15.890625 L 13.03125 -5.09375 C 13.03125 -3.59375 12.5625 -2.363281 11.625 -1.40625 C 10.6875 -0.457031 9.414062 0.078125 7.8125 0.203125 L 7.265625 0.21875 C 5.523438 0.21875 4.132812 -0.25 3.09375 -1.1875 C 2.0625 -2.125 1.539062 -3.414062 1.53125 -5.0625 L 1.53125 -15.890625 L 3.609375 -15.890625 L 3.609375 -5.125 C 3.609375 -3.976562 3.921875 -3.085938 4.546875 -2.453125 C 5.179688 -1.816406 6.085938 -1.5 7.265625 -1.5 C 8.453125 -1.5 9.359375 -1.8125 9.984375 -2.4375 C 10.609375 -3.070312 10.921875 -3.96875 10.921875 -5.125 L 10.921875 -15.890625 Z M 13.03125 -15.890625 "/></g></g></g><g fill="#2f4faa" fill-opacity="1"><g transform="translate(336.474345, 389.877851)"><g><path d="M 4.546875 -15.890625 L 9.75 -2.921875 L 14.953125 -15.890625 L 17.671875 -15.890625 L 17.671875 0 L 15.5625 0 L 15.5625 -6.1875 L 15.765625 -12.875 L 10.546875 0 L 8.9375 0 L 3.734375 -12.84375 L 3.9375 -6.1875 L 3.9375 0 L 1.84375 0 L 1.84375 -15.890625 Z M 4.546875 -15.890625 "/></g></g></g><path fill="#fc826a" d="M 303.117188 225.488281 C 307.523438 225.6875 311.300781 223.023438 312.8125 219.222656 C 313.421875 217.691406 314.847656 216.648438 316.492188 216.609375 L 326.273438 216.390625 C 328.089844 216.347656 329.734375 217.511719 330.242188 219.261719 C 331.902344 224.957031 336.5 229.367188 342.246094 230.773438 C 344.011719 231.207031 345.242188 232.804688 345.285156 234.625 L 345.589844 248.425781 C 345.621094 249.835938 344.914062 251.148438 343.738281 251.917969 C 341.851562 253.152344 340.675781 255.371094 340.921875 257.828125 C 341.230469 260.90625 343.792969 263.332031 346.875 263.464844 C 350.53125 263.621094 353.5 260.652344 353.417969 257.042969 C 353.371094 254.792969 352.144531 252.847656 350.347656 251.777344 C 349.144531 251.058594 348.355469 249.804688 348.324219 248.394531 L 348.015625 234.539062 C 347.976562 232.703125 349.179688 231.085938 350.9375 230.5625 C 357.957031 228.476562 363 221.890625 362.828125 214.195312 C 362.773438 211.621094 362.136719 209.195312 361.046875 207.042969 C 360.214844 205.398438 360.546875 203.40625 361.914062 202.171875 L 368.535156 196.214844 C 369.773438 195.097656 371.582031 194.835938 373.054688 195.617188 C 377.273438 197.855469 382.644531 197.273438 386.308594 193.71875 C 390.5625 189.59375 390.933594 182.777344 387.15625 178.210938 C 383 173.183594 375.558594 172.675781 370.761719 176.992188 C 367.117188 180.273438 366.078125 185.375 367.769531 189.691406 C 368.382812 191.257812 367.957031 193.046875 366.707031 194.171875 L 360.074219 200.148438 C 358.710938 201.375 356.707031 201.511719 355.171875 200.519531 C 352.480469 198.789062 349.265625 197.8125 345.828125 197.890625 C 338.164062 198.0625 331.828125 203.414062 330.066406 210.539062 C 329.625 212.324219 328.066406 213.605469 326.234375 213.648438 L 316.429688 213.867188 C 314.808594 213.90625 313.320312 212.964844 312.660156 211.480469 C 311.082031 207.914062 307.488281 205.46875 303.355469 205.558594 C 297.738281 205.683594 293.316406 210.464844 293.65625 216.140625 C 293.960938 221.191406 298.078125 225.265625 303.117188 225.488281 " fill-opacity="1" fill-rule="nonzero"/><path fill="#2f4faa" d="M 252.035156 206.683594 C 254.070312 210.609375 258.257812 212.558594 262.296875 211.972656 C 263.921875 211.734375 265.535156 212.453125 266.390625 213.863281 L 271.46875 222.253906 C 272.414062 223.808594 272.230469 225.820312 270.976562 227.136719 C 266.890625 231.425781 265.382812 237.625 267.039062 243.320312 C 267.546875 245.070312 266.785156 246.941406 265.234375 247.886719 L 253.476562 255.054688 C 252.273438 255.785156 250.785156 255.824219 249.53125 255.1875 C 247.527344 254.167969 245.019531 254.253906 243.023438 255.699219 C 240.519531 257.503906 239.707031 260.945312 241.132812 263.6875 C 242.828125 266.941406 246.871094 268.035156 249.949219 266.164062 C 251.863281 264.996094 252.933594 262.957031 252.957031 260.863281 C 252.976562 259.457031 253.667969 258.144531 254.867188 257.414062 L 266.671875 250.214844 C 268.238281 249.261719 270.238281 249.5 271.566406 250.765625 C 276.875 255.820312 285.085938 256.910156 291.640625 252.914062 C 293.835938 251.578125 295.609375 249.808594 296.925781 247.789062 C 297.929688 246.242188 299.816406 245.539062 301.5625 246.109375 L 310.019531 248.878906 C 311.601562 249.398438 312.730469 250.839844 312.792969 252.507812 C 312.972656 257.292969 316.15625 261.667969 321.058594 263.074219 C 326.746094 264.707031 332.816406 261.621094 334.871094 256.058594 C 337.132812 249.933594 333.851562 243.210938 327.722656 241.203125 C 323.070312 239.679688 318.144531 241.324219 315.265625 244.953125 C 314.21875 246.269531 312.464844 246.792969 310.867188 246.273438 L 302.390625 243.496094 C 300.652344 242.925781 299.53125 241.253906 299.617188 239.421875 C 299.769531 236.21875 299.003906 232.9375 297.21875 229.992188 C 293.234375 223.417969 285.449219 220.589844 278.414062 222.621094 C 276.65625 223.128906 274.769531 222.417969 273.820312 220.847656 L 268.726562 212.4375 C 267.882812 211.046875 267.949219 209.285156 268.902344 207.972656 C 271.191406 204.816406 271.507812 200.46875 269.359375 196.925781 C 266.445312 192.109375 260.109375 190.652344 255.375 193.789062 C 251.171875 196.582031 249.710938 202.195312 252.035156 206.683594 " fill-opacity="1" fill-rule="nonzero"/><path fill="#fc826a" d="M 242.730469 152.898438 C 240.359375 156.628906 240.769531 161.246094 243.296875 164.457031 C 244.3125 165.75 244.5 167.515625 243.710938 168.960938 L 239.007812 177.566406 C 238.136719 179.164062 236.308594 180.015625 234.546875 179.582031 C 228.796875 178.175781 222.691406 179.964844 218.605469 184.253906 C 217.351562 185.570312 215.355469 185.839844 213.761719 184.96875 L 201.695312 178.335938 C 200.464844 177.65625 199.683594 176.382812 199.609375 174.976562 C 199.484375 172.722656 198.15625 170.589844 195.914062 169.574219 C 193.101562 168.304688 189.726562 169.320312 188.070312 171.929688 C 186.109375 175.027344 187.183594 179.089844 190.339844 180.824219 C 192.308594 181.90625 194.601562 181.816406 196.421875 180.792969 C 197.644531 180.101562 199.121094 180.046875 200.351562 180.722656 L 212.46875 187.382812 C 214.078125 188.265625 214.871094 190.125 214.441406 191.910156 C 212.734375 199.050781 215.898438 206.726562 222.625 210.425781 C 224.875 211.664062 227.289062 212.320312 229.691406 212.453125 C 231.527344 212.554688 233.082031 213.839844 233.460938 215.644531 L 235.296875 224.375 C 235.640625 226.007812 234.960938 227.707031 233.550781 228.597656 C 229.507812 231.148438 227.324219 236.101562 228.5625 241.066406 C 229.996094 246.820312 235.695312 250.554688 241.527344 249.554688 C 247.941406 248.457031 252.105469 242.246094 250.773438 235.917969 C 249.761719 231.113281 245.882812 227.65625 241.308594 226.96875 C 239.648438 226.71875 238.320312 225.457031 237.972656 223.808594 L 236.128906 215.054688 C 235.753906 213.261719 236.636719 211.449219 238.261719 210.609375 C 241.101562 209.136719 243.550781 206.832031 245.199219 203.808594 C 248.886719 197.0625 247.433594 188.878906 242.164062 183.789062 C 240.84375 182.511719 240.515625 180.519531 241.394531 178.90625 L 246.109375 170.277344 C 246.886719 168.851562 248.441406 168.027344 250.050781 168.199219 C 253.917969 168.609375 257.832031 166.707031 259.816406 163.074219 C 262.515625 158.128906 260.605469 151.898438 255.53125 149.355469 C 251.019531 147.097656 245.445312 148.636719 242.730469 152.898438 " fill-opacity="1" fill-rule="nonzero"/><path fill="#2f4faa" d="M 284.507812 117.925781 C 280.101562 117.726562 276.324219 120.390625 274.8125 124.191406 C 274.203125 125.722656 272.777344 126.765625 271.132812 126.804688 L 261.351562 127.023438 C 259.535156 127.066406 257.890625 125.902344 257.378906 124.152344 C 255.722656 118.457031 251.125 114.046875 245.378906 112.636719 C 243.613281 112.207031 242.382812 110.609375 242.339844 108.789062 L 242.03125 94.988281 C 242 93.578125 242.710938 92.265625 243.886719 91.496094 C 245.773438 90.261719 246.949219 88.042969 246.703125 85.585938 C 246.394531 82.507812 243.828125 80.082031 240.75 79.949219 C 237.09375 79.792969 234.125 82.761719 234.207031 86.371094 C 234.257812 88.617188 235.480469 90.566406 237.273438 91.632812 C 238.480469 92.351562 239.265625 93.609375 239.300781 95.015625 L 239.609375 108.875 C 239.648438 110.710938 238.445312 112.328125 236.6875 112.851562 C 229.667969 114.9375 224.621094 121.523438 224.792969 129.21875 C 224.851562 131.792969 225.488281 134.21875 226.578125 136.371094 C 227.410156 138.015625 227.078125 140.007812 225.710938 141.238281 L 219.089844 147.199219 C 217.851562 148.316406 216.042969 148.574219 214.570312 147.796875 C 210.351562 145.558594 204.980469 146.140625 201.3125 149.695312 C 197.0625 153.820312 196.691406 160.636719 200.46875 165.203125 C 204.625 170.230469 212.066406 170.742188 216.863281 166.417969 C 220.507812 163.136719 221.550781 158.039062 219.855469 153.722656 C 219.242188 152.15625 219.667969 150.367188 220.917969 149.242188 L 227.550781 143.265625 C 228.914062 142.039062 230.914062 141.902344 232.453125 142.894531 C 235.144531 144.625 238.359375 145.601562 241.792969 145.523438 C 249.460938 145.351562 255.796875 140 257.558594 132.875 C 258 131.089844 259.558594 129.808594 261.390625 129.765625 L 271.195312 129.546875 C 272.816406 129.511719 274.304688 130.449219 274.960938 131.933594 C 276.542969 135.496094 280.136719 137.945312 284.269531 137.855469 C 289.886719 137.730469 294.308594 132.949219 293.96875 127.273438 C 293.660156 122.222656 289.546875 118.148438 284.507812 117.925781 " fill-opacity="1" fill-rule="nonzero"/><path fill="#fc826a" d="M 335.585938 136.730469 C 333.554688 132.808594 329.367188 130.855469 325.328125 131.445312 C 323.703125 131.679688 322.089844 130.960938 321.234375 129.550781 L 316.152344 121.164062 C 315.210938 119.609375 315.394531 117.59375 316.648438 116.277344 C 320.734375 111.988281 322.242188 105.789062 320.585938 100.09375 C 320.078125 98.34375 320.839844 96.476562 322.390625 95.53125 L 334.148438 88.363281 C 335.351562 87.628906 336.839844 87.589844 338.089844 88.226562 C 340.097656 89.25 342.601562 89.160156 344.601562 87.71875 C 347.105469 85.910156 347.917969 82.46875 346.492188 79.726562 C 344.796875 76.472656 340.753906 75.378906 337.675781 77.253906 C 335.757812 78.421875 334.691406 80.457031 334.667969 82.550781 C 334.648438 83.957031 333.957031 85.269531 332.757812 86 L 320.953125 93.199219 C 319.382812 94.152344 317.386719 93.914062 316.054688 92.648438 C 310.75 87.59375 302.535156 86.503906 295.980469 90.5 C 293.789062 91.835938 292.011719 93.601562 290.699219 95.625 C 289.695312 97.171875 287.808594 97.878906 286.0625 97.304688 L 277.605469 94.535156 C 276.023438 94.015625 274.894531 92.578125 274.832031 90.90625 C 274.652344 86.121094 271.464844 81.746094 266.5625 80.339844 C 260.878906 78.707031 254.804688 81.792969 252.753906 87.359375 C 250.492188 93.480469 253.773438 100.203125 259.902344 102.210938 C 264.554688 103.734375 269.480469 102.089844 272.359375 98.460938 C 273.40625 97.144531 275.160156 96.621094 276.757812 97.144531 L 285.234375 99.917969 C 286.972656 100.488281 288.09375 102.160156 288.007812 103.992188 C 287.855469 107.195312 288.621094 110.476562 290.40625 113.421875 C 294.386719 119.996094 302.175781 122.824219 309.207031 120.792969 C 310.96875 120.285156 312.855469 120.996094 313.804688 122.570312 L 318.898438 130.976562 C 319.742188 132.367188 319.675781 134.128906 318.722656 135.441406 C 316.433594 138.597656 316.117188 142.945312 318.261719 146.488281 C 321.179688 151.304688 327.519531 152.761719 332.246094 149.625 C 336.453125 146.835938 337.914062 141.222656 335.585938 136.730469 " fill-opacity="1" fill-rule="nonzero"/><path fill="#2f4faa" d="M 397.28125 162.589844 C 395.316406 161.507812 393.023438 161.597656 391.203125 162.625 C 389.976562 163.3125 388.503906 163.367188 387.273438 162.691406 L 375.152344 156.03125 C 373.546875 155.148438 372.753906 153.292969 373.183594 151.503906 C 374.890625 144.367188 371.726562 136.6875 365 132.988281 C 362.746094 131.753906 360.335938 131.09375 357.929688 130.960938 C 356.097656 130.863281 354.542969 129.578125 354.164062 127.773438 L 352.328125 119.042969 C 351.984375 117.40625 352.664062 115.707031 354.070312 114.816406 C 358.117188 112.269531 360.300781 107.3125 359.0625 102.351562 C 357.625 96.59375 351.929688 92.863281 346.097656 93.859375 C 339.683594 94.960938 335.519531 101.167969 336.851562 107.496094 C 337.859375 112.300781 341.742188 115.757812 346.3125 116.445312 C 347.976562 116.695312 349.304688 117.960938 349.652344 119.605469 L 351.492188 128.359375 C 351.871094 130.15625 350.988281 131.964844 349.363281 132.804688 C 346.523438 134.277344 344.074219 136.582031 342.421875 139.605469 C 338.738281 146.351562 340.191406 154.535156 345.460938 159.628906 C 346.78125 160.902344 347.109375 162.894531 346.230469 164.507812 L 341.515625 173.140625 C 340.738281 174.5625 339.183594 175.386719 337.570312 175.214844 C 333.707031 174.808594 329.792969 176.707031 327.808594 180.34375 C 325.109375 185.285156 327.019531 191.515625 332.089844 194.058594 C 336.601562 196.320312 342.179688 194.78125 344.890625 190.515625 C 347.265625 186.785156 346.851562 182.171875 344.328125 178.957031 C 343.3125 177.664062 343.125 175.902344 343.910156 174.453125 L 348.613281 165.847656 C 349.488281 164.25 351.3125 163.402344 353.078125 163.832031 C 358.824219 165.238281 364.929688 163.449219 369.019531 159.160156 C 370.273438 157.84375 372.269531 157.574219 373.863281 158.449219 L 385.925781 165.082031 C 387.160156 165.757812 387.941406 167.03125 388.015625 168.4375 C 388.136719 170.691406 389.464844 172.824219 391.710938 173.839844 C 394.523438 175.109375 397.898438 174.09375 399.550781 171.484375 C 401.515625 168.386719 400.4375 164.324219 397.28125 162.589844 " fill-opacity="1" fill-rule="nonzero"/></svg>